Coordinates
version=1
nRows=8
nColumns=27
inDegrees=yes

Units are S.I. units (second, meters, Newtons, ...)
If the header above contains a line with 'inDegrees', this indicates whether rotational values are in degrees (yes) or radians (no).

endheader
time	pelvis_rotation	pelvis_tilt	pelvis_list	pelvis_tx	pelvis_ty	pelvis_tz	hip_flexion_r	hip_adduction_r	hip_rotation_r	knee_angle_r	knee_rotation_r	knee_adduction_r	knee_angle_r_beta	ankle_angle_r	subtalar_angle_r	mtp_angle_r	hip_flexion_l	hip_adduction_l	hip_rotation_l	knee_angle_l	knee_rotation_l	knee_adduction_l	knee_angle_l_beta	ankle_angle_l	subtalar_angle_l	mtp_angle_l
      3.72000000	      3.68871710	    -30.42259657	      3.26141145	     -0.00643514	      0.62545631	     -1.11479506	     96.22269311	    -44.65696313	      5.43528676	     82.48320921	      4.30470571	      9.89299462	      1.43960358	     11.11427524	      1.52252477	      0.00000000	     91.94328085	    -36.56973480	      7.87622794	     75.41932986	      7.17299801	     -9.90059112	      1.31631563	      9.28641749	      3.14528306	      0.00000000
      3.72500000	      3.67009807	    -30.37424486	      3.16529271	     -0.00633023	      0.62398988	     -1.11479492	     96.33401511	    -44.66476539	      5.32908196	     82.71670567	      4.08808516	      9.89401074	      1.44367886	     11.20038304	      1.61748164	      0.00000000	     92.23219083	    -36.67098954	      8.02308099	     75.70304361	      7.04633093	     -9.90146762	      1.32126736	      9.37908171	      3.45715232	      0.00000000
      3.73000000	      3.76835890	    -30.27763823	      3.14344952	     -0.00618180	      0.62253611	     -1.11482068	     96.43192420	    -44.81169908	      5.25704578	     82.95754692	      3.87045183	      9.89444094	      1.44788233	     11.30993247	      1.85066392	      0.00000000	     92.44795015	    -36.63528999	      8.12808198	     75.96744614	      6.89488308	     -9.90224673	      1.32588206	      9.45518040	      3.67483186	      0.00000000
      3.73500000	      3.78416391	    -30.18773864	      3.28995755	     -0.00605738	      0.62102996	     -1.11483335	     96.79796416	    -44.82726888	      5.56815414	     83.23880274	      3.69861909	      9.89551947	      1.45279117	     11.36448387	      1.92742538	      0.00000000	     92.47829304	    -36.70574827	      7.90091731	     76.20655738	      6.71347162	     -9.90361162	      1.33005534	      9.51042053	      3.89839504	      0.00000000
      3.74000000	      3.79228555	    -30.06435197	      3.27569089	     -0.00586328	      0.61951490	     -1.11480930	     96.92590589	    -44.86047165	      5.58087319	     83.49732318	      3.47638029	      9.89624034	      1.45730321	     11.48000001	      2.07872188	      0.00000000	     92.62316257	    -36.77621701	      7.92561796	     76.47621279	      6.54755593	     -9.90449156	      1.33476171	      9.60354087	      4.19887175	      0.00000000
      3.74500000	      3.88139426	    -30.00047388	      3.28628022	     -0.00570495	      0.61809379	     -1.11477624	     97.09939608	    -44.97167956	      5.56476957	     83.74232690	      3.25812672	      9.89726157	      1.46157933	     11.55355376	      2.18645895	      0.00000000	     92.83219022	    -36.75585925	      7.95443059	     76.72099361	      6.37887726	     -9.90549195	      1.33903394	      9.64953588	      4.39726303	      0.00000000
      3.75000000	      3.93384995	    -29.92477029	      3.23188581	     -0.00554093	      0.61661925	     -1.11474047	     97.20025391	    -45.04431985	      5.48118371	     83.97511470	      3.03829978	      9.89813842	      1.46564224	     11.61959876	      2.27229035	      0.00000000	     93.08570887	    -36.76663838	      8.06350048	     76.98958376	      6.20539945	     -9.90630473	      1.34372173	      9.70778161	      4.61673457	      0.00000000
      3.75500000	      3.93719638	    -29.82645496	      3.16553318	     -0.00534431	      0.61513837	     -1.11461875	     97.28619730	    -45.06856253	      5.38062614	     84.23092288	      2.78984433	      9.89863070	      1.47010694	     11.72785500	      2.37542924	      0.00000000	     93.29910526	    -36.85000812	      8.19401360	     77.24991201	      6.08998737	     -9.90705136	      1.34826531	      9.77713735	      4.90386202	      0.00000000
